<?xml version="1.0" encoding="iso-8859-1"?>
<!-- Uploaded to: SVG Repo, www.svgrepo.com, Generator: SVG Repo Mixer Tools -->
<svg version="1.1" id="Layer_1" xmlns="http://www.w3.org/2000/svg" xmlns:xlink="http://www.w3.org/1999/xlink" 
	 viewBox="0 0 466 466" xml:space="preserve">
<g>
	<rect x="133" y="8" style="fill:#EFEFEF;" width="200" height="450"/>
	<path style="fill:#3E81C8;" d="M260.5,308.99V75.22c0-15.009-12.216-27.22-27.23-27.22h-0.55c-15.009,0-27.22,12.211-27.22,27.22
		l-0.002,233.777c-19.455,10.617-30.928,30.975-29.94,53.127c1.302,29.379,25.338,53.458,54.785,54.82
		c0.895,0.034,1.775,0.056,2.657,0.056c15.355,0,29.794-5.981,40.657-16.843c10.861-10.862,16.843-25.301,16.843-40.657
		C290.5,338.443,279.005,319.092,260.5,308.99z"/>
	<path style="fill:#F8A805;" d="M233,339c-11.579,0-21,9.421-21,21s9.421,21,21,21s21-9.421,21-21S244.579,339,233,339z"/>
	<g>
		<path d="M333,0H133c-4.42,0-8,3.58-8,8v450c0,4.42,3.58,8,8,8h200c4.42,0,8-3.58,8-8V8C341,3.58,337.42,0,333,0z M325,450H141V16
			h184V450z"/>
		<path d="M268.5,304.45V75.22C268.5,55.8,252.7,40,233.27,40h-0.55c-19.42,0-35.22,15.8-35.22,35.22v229.22
			c-19.62,12.62-30.99,34.43-29.94,58.04c1.49,33.48,28.88,60.91,62.35,62.45c1.03,0.05,2.07,0.07,3.09,0.07
			c17.49,0,33.94-6.81,46.31-19.18c12.37-12.38,19.19-28.82,19.19-46.32C298.5,337.14,287.12,316.46,268.5,304.45z M268,394.5
			c-9.35,9.35-21.78,14.5-35,14.5c-0.78,0-1.56-0.02-2.35-0.05c-25.29-1.17-45.98-21.89-47.1-47.18
			c-0.85-19.08,9.03-36.61,25.78-45.75c2.57-1.41,4.17-4.1,4.17-7.03V75.22c0-10.6,8.62-19.22,19.22-19.22h0.55
			c10.6,0,19.23,8.62,19.23,19.22v233.77c0,2.93,1.6,5.62,4.17,7.03c15.93,8.69,25.83,25.35,25.83,43.48
			C282.5,372.72,277.35,385.15,268,394.5z"/>
		<path d="M241,332.13V207c0-4.42-3.58-8-8-8s-8,3.58-8,8v125.13c-12.11,3.48-21,14.65-21,27.87c0,15.99,13.01,29,29,29
			s29-13.01,29-29C262,346.78,253.11,335.61,241,332.13z M233,373c-7.17,0-13-5.83-13-13s5.83-13,13-13s13,5.83,13,13
			S240.17,373,233,373z"/>
		<path d="M312,271c0,4.42-3.58,8-8,8h-16c-4.42,0-8-3.58-8-8s3.58-8,8-8h16C308.42,263,312,266.58,312,271z"/>
		<path d="M312,237c0,4.42-3.58,8-8,8h-16c-4.42,0-8-3.58-8-8s3.58-8,8-8h16C308.42,229,312,232.58,312,237z"/>
		<path d="M312,203c0,4.42-3.58,8-8,8h-16c-4.42,0-8-3.58-8-8s3.58-8,8-8h16C308.42,195,312,198.58,312,203z"/>
		<path d="M312,169c0,4.42-3.58,8-8,8h-16c-4.42,0-8-3.58-8-8s3.58-8,8-8h16C308.42,161,312,164.58,312,169z"/>
		<path d="M312,135c0,4.42-3.58,8-8,8h-16c-4.42,0-8-3.58-8-8s3.58-8,8-8h16C308.42,127,312,130.58,312,135z"/>
		<path d="M312,101c0,4.42-3.58,8-8,8h-16c-4.42,0-8-3.58-8-8s3.58-8,8-8h16C308.42,93,312,96.58,312,101z"/>
		<path d="M185,271c0,4.42-3.58,8-8,8h-16c-4.42,0-8-3.58-8-8s3.58-8,8-8h16C181.42,263,185,266.58,185,271z"/>
		<path d="M185,237c0,4.42-3.58,8-8,8h-16c-4.42,0-8-3.58-8-8s3.58-8,8-8h16C181.42,229,185,232.58,185,237z"/>
		<path d="M185,203c0,4.42-3.58,8-8,8h-16c-4.42,0-8-3.58-8-8s3.58-8,8-8h16C181.42,195,185,198.58,185,203z"/>
		<path d="M185,169c0,4.42-3.58,8-8,8h-16c-4.42,0-8-3.58-8-8s3.58-8,8-8h16C181.42,161,185,164.58,185,169z"/>
		<path d="M185,135c0,4.42-3.58,8-8,8h-16c-4.42,0-8-3.58-8-8s3.58-8,8-8h16C181.42,127,185,130.58,185,135z"/>
		<path d="M185,101c0,4.42-3.58,8-8,8h-16c-4.42,0-8-3.58-8-8s3.58-8,8-8h16C181.42,93,185,96.58,185,101z"/>
	</g>
</g>
</svg>