<?xml version="1.0" encoding="iso-8859-1"?>
<!-- Uploaded to: SVG Repo, www.svgrepo.com, Generator: SVG Repo Mixer Tools -->
<svg height="800px" width="800px" version="1.1" id="Layer_1" xmlns="http://www.w3.org/2000/svg" xmlns:xlink="http://www.w3.org/1999/xlink" 
	 viewBox="0 0 511.995 511.995" xml:space="preserve">
<polygon style="fill:#9BDC6E;" points="473.67,122.33 259.482,9.456 37.135,122.33 37.135,390.235 255.402,501.749 473.67,390.235 
	"/>
<path style="fill:#5FBA91;" d="M485.83,121.92c0-0.369-0.031-0.728-0.076-1.084c-0.011-0.092-0.026-0.181-0.041-0.272
	c-0.047-0.293-0.107-0.58-0.181-0.861c-0.017-0.065-0.032-0.132-0.051-0.198c-0.101-0.348-0.223-0.688-0.365-1.018
	c-0.015-0.034-0.033-0.067-0.048-0.1c-0.131-0.291-0.278-0.57-0.439-0.842c-0.044-0.074-0.087-0.146-0.133-0.218
	c-0.175-0.277-0.361-0.544-0.566-0.798c-0.017-0.021-0.031-0.044-0.048-0.065c-0.22-0.269-0.461-0.52-0.712-0.761
	c-0.067-0.064-0.137-0.125-0.207-0.187c-0.216-0.194-0.441-0.377-0.676-0.549c-0.055-0.04-0.108-0.084-0.164-0.123
	c-0.296-0.206-0.605-0.392-0.927-0.559c-0.017-0.009-0.032-0.022-0.051-0.031L259.924,0.947c-2.465-1.263-5.387-1.263-7.853,0
	L30.853,114.253c-0.018,0.009-0.033,0.022-0.052,0.031c-0.32,0.168-0.629,0.353-0.925,0.558c-0.057,0.04-0.111,0.084-0.168,0.125
	c-0.234,0.171-0.457,0.353-0.673,0.546c-0.07,0.063-0.14,0.124-0.208,0.189c-0.25,0.24-0.49,0.492-0.711,0.76
	c-0.018,0.022-0.033,0.045-0.051,0.067c-0.203,0.254-0.389,0.521-0.565,0.797c-0.046,0.072-0.09,0.145-0.133,0.218
	c-0.161,0.272-0.309,0.551-0.439,0.842c-0.015,0.033-0.033,0.065-0.048,0.1c-0.144,0.328-0.263,0.668-0.365,1.018
	c-0.02,0.065-0.033,0.132-0.051,0.198c-0.075,0.281-0.136,0.568-0.183,0.861c-0.014,0.091-0.03,0.18-0.041,0.272
	c-0.045,0.356-0.076,0.717-0.076,1.084v268.159c0,0.025,0.003,0.049,0.003,0.075c0.001,0.185,0.015,0.369,0.028,0.554
	c0.008,0.108,0.011,0.216,0.024,0.323c0.016,0.148,0.044,0.294,0.068,0.441c0.023,0.139,0.041,0.278,0.071,0.415
	c0.022,0.101,0.052,0.199,0.077,0.299c0.045,0.175,0.086,0.35,0.141,0.521c0.021,0.064,0.047,0.126,0.069,0.189
	c0.069,0.199,0.139,0.396,0.222,0.588c0.029,0.067,0.064,0.13,0.094,0.195c0.084,0.183,0.168,0.365,0.264,0.54
	c0.065,0.119,0.141,0.232,0.211,0.348c0.07,0.116,0.137,0.234,0.214,0.347c0.113,0.167,0.238,0.325,0.363,0.485
	c0.044,0.056,0.083,0.115,0.129,0.17c0.134,0.162,0.28,0.316,0.427,0.469c0.045,0.047,0.087,0.098,0.133,0.144
	c0.127,0.127,0.265,0.246,0.402,0.365c0.077,0.068,0.149,0.138,0.229,0.203c0.108,0.088,0.224,0.169,0.336,0.252
	c0.119,0.088,0.239,0.179,0.363,0.262c0.088,0.059,0.181,0.11,0.272,0.165c0.158,0.096,0.318,0.193,0.483,0.279
	c0.022,0.012,0.042,0.025,0.064,0.037l73.365,37.576c0.252,0.145,0.51,0.278,0.776,0.397l72.254,37.008
	c0.691,0.496,1.456,0.892,2.279,1.167l72.545,37.157c0.048,0.024,0.099,0.04,0.147,0.064c0.125,0.062,0.249,0.126,0.378,0.183
	c0.003,0.001,0.007,0.003,0.009,0.005c0.095,0.041,0.195,0.075,0.293,0.111c0.093,0.036,0.186,0.07,0.279,0.102
	c0.147,0.051,0.294,0.1,0.444,0.142c0.068,0.02,0.134,0.036,0.202,0.053c0.1,0.026,0.2,0.054,0.3,0.076
	c0.178,0.04,0.359,0.069,0.542,0.098c0.078,0.012,0.155,0.03,0.233,0.04c0.056,0.007,0.113,0.015,0.169,0.022
	c0.216,0.024,0.438,0.031,0.659,0.038c0.088,0.002,0.177,0.015,0.264,0.015c0.002,0,0.005,0,0.007,0c0.002,0,0.005,0,0.007,0
	c0.087,0,0.176-0.013,0.264-0.015c0.222-0.007,0.442-0.015,0.659-0.038c0.056-0.006,0.113-0.014,0.169-0.022
	c0.078-0.01,0.155-0.028,0.233-0.04c0.183-0.029,0.364-0.057,0.543-0.098c0.101-0.023,0.2-0.049,0.301-0.076
	c0.067-0.017,0.133-0.033,0.2-0.053c0.15-0.044,0.299-0.092,0.446-0.142c0.093-0.032,0.186-0.067,0.279-0.102
	c0.098-0.038,0.198-0.071,0.294-0.113c0.001,0,0.002-0.001,0.003-0.001c0.131-0.056,0.256-0.122,0.382-0.185
	c0.048-0.024,0.099-0.039,0.147-0.064l72.546-37.157c0.822-0.276,1.587-0.671,2.277-1.167l72.257-37.01
	c0.265-0.119,0.523-0.251,0.773-0.395l73.365-37.577c0.023-0.012,0.042-0.025,0.064-0.037c0.167-0.087,0.325-0.183,0.483-0.279
	c0.091-0.055,0.185-0.108,0.272-0.165c0.124-0.083,0.242-0.173,0.362-0.262c0.114-0.084,0.229-0.164,0.337-0.252
	c0.079-0.064,0.153-0.136,0.229-0.203c0.137-0.119,0.274-0.239,0.402-0.365c0.047-0.046,0.088-0.096,0.133-0.144
	c0.146-0.153,0.292-0.307,0.426-0.469c0.046-0.055,0.085-0.114,0.129-0.17c0.125-0.16,0.249-0.318,0.362-0.485
	c0.076-0.113,0.142-0.231,0.214-0.347c0.071-0.116,0.146-0.229,0.211-0.348c0.095-0.176,0.18-0.358,0.264-0.54
	c0.03-0.065,0.065-0.13,0.094-0.195c0.083-0.192,0.153-0.39,0.22-0.588c0.023-0.063,0.048-0.125,0.07-0.189
	c0.054-0.17,0.096-0.346,0.141-0.521c0.025-0.1,0.055-0.199,0.077-0.299c0.029-0.137,0.048-0.277,0.071-0.415
	c0.024-0.147,0.051-0.293,0.068-0.441c0.011-0.107,0.016-0.215,0.024-0.323c0.014-0.184,0.025-0.369,0.028-0.554
	c0-0.025,0.003-0.049,0.003-0.075V121.92H485.83z M182.248,56.065l54.856,28.097l-54.947,28.143l-54.856-28.097L182.248,56.065z
	 M255.997,93.839l54.947,28.143l-54.947,28.143l-54.947-28.143L255.997,93.839z M384.694,84.208l-54.856,28.097l-54.947-28.144
	l54.856-28.097L384.694,84.208z M43.393,229.216l56.505,28.941v62.953l-56.505-28.941V229.216z M117.124,266.98l56.52,28.949v62.953
	l-56.52-28.949C117.124,329.933,117.124,266.98,117.124,266.98z M247.384,314.344l-56.513-28.946v-73.853l56.513,28.946
	L247.384,314.344L247.384,314.344z M264.611,240.492l56.513-28.946v73.853l-56.513,28.946L264.611,240.492L264.611,240.492z
	 M338.351,202.723l56.52-28.949v73.853l-56.52,28.949V202.723z M255.997,225.549l-54.733-28.034l54.733-28.034l54.733,28.034
	L255.997,225.549z M173.645,276.576l-56.52-28.949v-73.853l56.52,28.949V276.576z M190.872,304.754l56.513,28.946v62.951
	l-56.513-28.946L190.872,304.754L190.872,304.754z M264.611,333.7l56.513-28.946v62.951l-56.513,28.946L264.611,333.7L264.611,333.7
	z M338.351,295.931l56.52-28.949v62.953l-56.52,28.949V295.931z M412.098,258.158l56.505-28.941v62.953l-56.505,28.941V258.158z
	 M468.603,209.861l-56.505,28.941v-73.853l56.505-28.941V209.861z M329.625,187.837l-54.733-28.034l54.947-28.144l54.733,28.034
	L329.625,187.837z M237.104,159.803l-54.733,28.034l-54.947-28.144l54.733-28.034L237.104,159.803z M99.897,238.803l-56.505-28.941
	V136.01l56.505,28.941V238.803z M43.393,311.523l56.505,28.941v73.29l-56.505-28.941V311.523z M117.124,349.288l56.52,28.949v73.29
	l-56.52-28.949C117.124,422.578,117.124,349.288,117.124,349.288z M190.872,387.061l56.513,28.946v73.29l-56.513-28.946
	L190.872,387.061L190.872,387.061z M264.611,416.006l56.513-28.946v73.29l-56.513,28.946L264.611,416.006L264.611,416.006z
	 M338.351,378.237l56.52-28.949v73.29l-56.52,28.949V378.237z M412.098,340.464l56.505-28.941v73.289l-56.505,28.941V340.464z
	 M403.466,150.017l-54.733-28.034l54.855-28.097l54.733,28.034L403.466,150.017z M255.997,18.291l54.856,28.097l-54.856,28.097
	l-54.855-28.097L255.997,18.291z M108.407,93.886l54.856,28.097l-54.733,28.034L53.674,121.92L108.407,93.886z"/>
</svg>